<svg width="1590" height="390" viewBox="0 0 1590 390" fill="none" xmlns="http://www.w3.org/2000/svg">
<path d="M492.955 148.2V173.88H592.795V198.6H492.955V249H468.235V123.48H592.795V148.2H492.955ZM684.424 148.2V223.32H723.784V249H620.344V223.32H659.704V148.2H620.344V123.48H723.784V148.2H684.424ZM830.354 186.36L874.514 231.24V249H856.754L811.874 203.88L767.714 249H749.954V231.24L794.114 186.36L749.954 141.24V123.48H767.714L811.874 168.6L856.754 123.48H874.514V141.24L830.354 186.36ZM1022.43 249H997.707V199.56H922.587V249H896.907V124.44H1022.43V249ZM997.707 149.16H922.587V173.88H997.707V149.16ZM1172.9 249H1047.38V123.48H1172.9V249ZM1148.18 198.6H1073.06V223.32H1148.18V198.6ZM1148.18 148.2H1073.06V173.88H1148.18V148.2ZM1303.16 249H1199.72V123.48H1224.44V224.28H1303.16V249ZM1353.84 148.2V173.88H1453.68V198.6H1353.84V223.32H1453.68V249H1328.16V123.48H1453.68V148.2H1353.84Z" fill="white"/>
<path d="M186.613 100H304.422L217.809 228.378H100L186.613 100Z" fill="white"/>
<path d="M191.773 240.276L158.226 290H281.623L368.236 161.622H277.161L224.095 240.276H191.773Z" fill="white"/>
</svg>
